<svg width="47" height="47" viewBox="0 0 47 47" fill="none" xmlns="http://www.w3.org/2000/svg">
    <g clip-path="url(#clip0_372_2093)">
    <path d="M36.6875 27.7501L37.845 17.6667H34.7974L30.5938 35.2813L45.5442 34.4287L46.7691 29.8572L36.6875 27.7501Z" fill="#FFA95F"/>
    <path d="M34.5786 29.8572H31.5309L29.8977 35.9524H43.612C44.4536 35.9524 45.3186 35.2702 45.5441 34.4286H34.8774C34.0358 34.4286 33.5364 33.7464 33.7619 32.9048L34.5786 29.8572Z" fill="#FF8B5A"/>
    <path d="M46.5566 27.8895L43.9805 26.0477L41.047 24.1368L43.955 20.7144L43.9458 18.7896C43.9426 18.1267 43.4637 17.6667 42.7765 17.6667H37.8452L34.5787 29.8572H46.7692L46.9463 29.1962C47.0897 28.6609 46.9417 28.1649 46.5566 27.8895Z" fill="#FFC269"/>
    <path d="M29.3709 16.1428H35.9676C36.3884 16.1428 36.6381 16.484 36.5253 16.9047L31.8299 34.4286L9.84371 35.7188C9.42296 35.7188 9.26218 35.5146 9.37496 35.0937L13.5781 19.2969L29.3709 16.1428Z" fill="#E5646E"/>
    <path d="M11.2585 34.4286C10.8376 34.4286 10.588 34.0874 10.7008 33.6667L11.8138 29.513C11.9299 29.0795 12.3966 28.8318 12.8135 28.9979C14.1977 29.5495 15.7044 29.8573 17.2858 29.8573C24.0183 29.8573 29.4763 24.3994 29.4763 17.6668C29.4763 17.1495 29.4335 16.6432 29.371 16.1429H14.6344C14.2136 16.1429 13.7811 16.484 13.6683 16.9049L8.76866 35.1906C8.65588 35.6113 8.90563 35.9525 9.32638 35.9525H31.4216L31.8298 34.4287H11.2585V34.4286Z" fill="#DB4655"/>
    <path d="M41.5682 37.9292C43.0156 36.662 43.4026 34.7365 42.4326 33.6285C41.4625 32.5204 39.5028 32.6493 38.0554 33.9165C36.6079 35.1836 36.2209 37.1091 37.191 38.2172C38.161 39.3252 40.1208 39.1963 41.5682 37.9292Z" fill="#5D5360"/>
    <path d="M40.69 36.926C41.4138 36.2924 41.6072 35.3297 41.1222 34.7756C40.6372 34.2216 39.6573 34.286 38.9336 34.9196C38.2099 35.5532 38.0164 36.5159 38.5014 37.07C38.9864 37.624 39.9663 37.5596 40.69 36.926Z" fill="#DAD8DB"/>
    <path d="M17.9548 37.9412C19.4022 36.6741 19.7892 34.7486 18.8192 33.6406C17.8491 32.5325 15.8894 32.6614 14.442 33.9286C12.9945 35.1957 12.6075 37.1212 13.5776 38.2292C14.5476 39.3373 16.5074 39.2084 17.9548 37.9412Z" fill="#5D5360"/>
    <path d="M17.0766 36.9381C17.8004 36.3045 17.9938 35.3418 17.5088 34.7877C17.0238 34.2337 16.0439 34.2981 15.3202 34.9317C14.5965 35.5653 14.403 36.528 14.888 37.0821C15.373 37.6361 16.3529 37.5717 17.0766 36.9381Z" fill="#DAD8DB"/>
    <path d="M43.9548 20.7144H40.0761L38.7266 22.2382L39.2539 25.5548L43.9803 24.5239L43.9548 20.7144Z" fill="#DBEAFF"/>
    <path d="M40.5791 24.5239C39.7375 24.5239 39.2381 23.8417 39.4635 23.0001L40.076 20.7144C39.2344 20.7144 38.3694 21.3966 38.1439 22.2382L37.5314 24.5239C37.306 25.3655 37.8054 26.0477 38.647 26.0477H43.9803L43.973 24.5239H40.5791Z" fill="#C3DDFF"/>
    <path d="M17.2857 28.3334C23.1768 28.3334 27.9524 23.5577 27.9524 17.6667C27.9524 11.7756 23.1768 7 17.2857 7C11.3947 7 6.61902 11.7756 6.61902 17.6667C6.61902 23.5577 11.3947 28.3334 17.2857 28.3334Z" fill="#ECEAEC"/>
    <path d="M17.2857 26.8096C22.3352 26.8096 26.4286 22.7162 26.4286 17.6667C26.4286 12.6172 22.3352 8.5238 17.2857 8.5238C12.2362 8.5238 8.14282 12.6172 8.14282 17.6667C8.14282 22.7162 12.2362 26.8096 17.2857 26.8096Z" fill="white"/>
    <path d="M17.2858 11.5715C17.1857 11.5715 17.0866 11.5518 16.9942 11.5135C16.9017 11.4753 16.8177 11.4191 16.7469 11.3484C16.6762 11.2776 16.6201 11.1936 16.5818 11.1012C16.5435 11.0087 16.5238 10.9096 16.5238 10.8096V10.0477C16.5238 9.62692 16.8646 9.28577 17.2858 9.28577C17.7069 9.28577 18.0477 9.62692 18.0477 10.0477V10.8096C18.0477 10.9096 18.028 11.0087 17.9897 11.1012C17.9514 11.1936 17.8953 11.2776 17.8246 11.3484C17.7538 11.4191 17.6698 11.4753 17.5774 11.5135C17.4849 11.5518 17.3858 11.5715 17.2858 11.5715ZM17.2858 26.0477C17.1857 26.0477 17.0866 26.028 16.9942 25.9898C16.9017 25.9515 16.8177 25.8954 16.7469 25.8246C16.6762 25.7538 16.6201 25.6698 16.5818 25.5774C16.5435 25.4849 16.5238 25.3859 16.5238 25.2858V24.5239C16.5238 24.1031 16.8646 23.762 17.2858 23.762C17.7069 23.762 18.0477 24.1031 18.0477 24.5239V25.2858C18.0477 25.3859 18.028 25.4849 17.9897 25.5774C17.9514 25.6698 17.8953 25.7538 17.8246 25.8246C17.7538 25.8954 17.6698 25.9515 17.5774 25.9898C17.4849 26.028 17.3858 26.0477 17.2858 26.0477ZM24.9047 18.4286H24.1428C23.7217 18.4286 23.3809 18.0875 23.3809 17.6667C23.3809 17.246 23.7217 16.9048 24.1428 16.9048H24.9047C25.3258 16.9048 25.6666 17.246 25.6666 17.6667C25.6666 18.0875 25.3259 18.4286 24.9047 18.4286ZM10.4286 18.4286H9.66669C9.24557 18.4286 8.90479 18.0875 8.90479 17.6667C8.90479 17.246 9.24557 16.9048 9.66669 16.9048H10.4286C10.8497 16.9048 11.1905 17.246 11.1905 17.6667C11.1905 18.0875 10.8497 18.4286 10.4286 18.4286Z" fill="#C8C5C9"/>
    <path d="M7.38097 28.3334H-0.238094C-0.659219 28.3334 -1 27.9922 -1 27.5715C-1 27.1507 -0.659219 26.8096 -0.238094 26.8096H7.38097C7.80209 26.8096 8.14288 27.1507 8.14288 27.5715C8.14288 27.9922 7.80209 28.3334 7.38097 28.3334ZM6.61906 31.381H2.04763C1.6265 31.381 1.28572 31.0398 1.28572 30.6191C1.28572 30.1983 1.6265 29.8572 2.04763 29.8572H6.61906C7.04019 29.8572 7.38097 30.1983 7.38097 30.6191C7.38097 31.0398 7.04019 31.381 6.61906 31.381ZM5.85716 34.4286H4.33334C3.91222 34.4286 3.57144 34.0875 3.57144 33.6667C3.57144 33.246 3.91222 32.9048 4.33334 32.9048H5.85716C6.27828 32.9048 6.61906 33.246 6.61906 33.6667C6.61906 34.0875 6.27828 34.4286 5.85716 34.4286Z" fill="#F9EAC7"/>
    <path d="M15 20.7143C14.8999 20.7144 14.8008 20.6947 14.7084 20.6564C14.6159 20.6181 14.5319 20.5619 14.4613 20.4911C14.3905 20.4204 14.3344 20.3364 14.2961 20.2439C14.2578 20.1515 14.238 20.0524 14.238 19.9524C14.238 19.8523 14.2578 19.7533 14.2961 19.6608C14.3344 19.5684 14.3905 19.4844 14.4613 19.4137L21.6994 12.1756C21.997 11.878 22.4791 11.878 22.7767 12.1756C23.0744 12.4733 23.0744 12.9554 22.7767 13.253L15.5387 20.4911C15.468 20.5619 15.384 20.6181 15.2916 20.6564C15.1991 20.6947 15.1 20.7144 15 20.7143Z" fill="#E5646E"/>
    <path d="M17.2858 19.1904C18.1274 19.1904 18.8096 18.5082 18.8096 17.6666C18.8096 16.8251 18.1274 16.1428 17.2858 16.1428C16.4442 16.1428 15.762 16.8251 15.762 17.6666C15.762 18.5082 16.4442 19.1904 17.2858 19.1904Z" fill="#5D5360"/>
    </g>
    <defs>
    <clipPath id="clip0_372_2093">
    <rect width="48" height="48" fill="white" transform="translate(-1 -1)"/>
    </clipPath>
    </defs>
    </svg>
    