<svg width="12" height="11" viewBox="0 0 12 11" fill="none" xmlns="http://www.w3.org/2000/svg">
    <path d="M11.4655 5.16117C10.9084 8.01717 7.98064 10.0232 6.74805 10.7535C6.51705 10.8895 6.25865 10.9583 6.00023 10.9583C5.74182 10.9583 5.48339 10.89 5.25239 10.7535C4.01922 10.0232 1.09148 8.01775 0.534401 5.16117C0.301651 3.96708 0.618403 2.70118 1.38199 1.77368C2.08082 0.92551 3.05207 0.458328 4.11723 0.458328C4.78748 0.458328 5.4344 0.628075 6.00023 0.950658C6.56606 0.628075 7.21298 0.458328 7.88323 0.458328C8.9484 0.458328 9.91964 0.92551 10.6185 1.77368C11.3815 2.70118 11.6982 3.96708 11.4655 5.16117Z" fill="#EA4335"/>
    </svg>
    