<svg width="20" height="16" viewBox="0 0 20 16" fill="none" xmlns="http://www.w3.org/2000/svg">
    <path fill-rule="evenodd" clip-rule="evenodd" d="M4 8C3.25191 8.00019 2.51886 8.21016 1.88412 8.60607C1.24938 9.00198 0.738379 9.56795 0.409165 10.2397C0.0799508 10.9115 -0.0542847 11.6621 0.021704 12.4063C0.0976927 13.1505 0.380863 13.8585 0.839049 14.4499C1.29723 15.0412 1.91207 15.4923 2.61373 15.7517C3.31539 16.0112 4.07574 16.0687 4.80844 15.9177C5.54113 15.7667 6.21679 15.4132 6.75868 14.8975C7.30058 14.3817 7.68697 13.7243 7.874 13L19 13C19.2652 13 19.5196 12.8946 19.7071 12.7071C19.8946 12.5196 20 12.2652 20 12C20 11.7348 19.8946 11.4804 19.7071 11.2929C19.5196 11.1054 19.2652 11 19 11L7.874 11C7.43 9.275 5.864 8 4 8ZM6 12C6 11.4696 5.78928 10.9609 5.41421 10.5858C5.03914 10.2107 4.53043 10 4 10C3.46956 10 2.96086 10.2107 2.58579 10.5858C2.21071 10.9609 2 11.4696 2 12C2 12.5304 2.21071 13.0391 2.58579 13.4142C2.96086 13.7893 3.46956 14 4 14C4.53043 14 5.03914 13.7893 5.41421 13.4142C5.78928 13.0391 6 12.5304 6 12ZM20 4C20.001 4.97426 19.6463 5.91539 19.0026 6.64673C18.3589 7.37806 17.4705 7.84933 16.504 7.97208C15.5375 8.09482 14.5594 7.86061 13.7533 7.31339C12.9472 6.76617 12.3686 5.94358 12.126 5L0.999999 5C0.734782 5 0.480428 4.89464 0.292892 4.7071C0.105355 4.51957 -8.81461e-07 4.26521 -8.58275e-07 4C-8.35089e-07 3.73478 0.105355 3.48043 0.292892 3.29289C0.480428 3.10535 0.734782 3 0.999999 3L12.126 3C12.3717 2.05951 12.9514 1.24061 13.7567 0.696198C14.562 0.151789 15.5379 -0.0809044 16.5022 0.0415637C17.4665 0.164032 18.3533 0.63329 18.997 1.36172C19.6406 2.09015 19.9972 3.02794 20 4ZM14 4C14 4.53043 14.2107 5.03914 14.5858 5.41421C14.9609 5.78928 15.4696 6 16 6C16.5304 6 17.0391 5.78928 17.4142 5.41421C17.7893 5.03914 18 4.53043 18 4C18 3.46957 17.7893 2.96086 17.4142 2.58579C17.0391 2.21071 16.5304 2 16 2C15.4696 2 14.9609 2.21071 14.5858 2.58579C14.2107 2.96086 14 3.46957 14 4Z" fill="white"/>
    </svg>
    