<svg width="19" height="14" viewBox="0 0 19 14" fill="none" xmlns="http://www.w3.org/2000/svg">
    <path d="M18.3214 0H0.678571C0.303807 0 0 0.303807 0 0.678571C0 1.05334 0.303807 1.35714 0.678571 1.35714H18.3214C18.6962 1.35714 19 1.05334 19 0.678571C19 0.303807 18.6962 0 18.3214 0Z" fill="black" style="fill:black;fill-opacity:1;"/>
    <path d="M0.678571 7.46432H9.5C9.87477 7.46432 10.1786 7.16051 10.1786 6.78575C10.1786 6.41098 9.87477 6.10718 9.5 6.10718H0.678571C0.303807 6.10718 0 6.41099 0 6.78575C0 7.16051 0.303807 7.46432 0.678571 7.46432Z" fill="black" style="fill:black;fill-opacity:1;"/>
    <path d="M15.6071 12.2144H0.678571C0.303807 12.2144 0 12.5182 0 12.8929C0 13.2677 0.303807 13.5715 0.678571 13.5715H15.6071C15.9819 13.5715 16.2857 13.2677 16.2857 12.8929C16.2857 12.5182 15.9819 12.2144 15.6071 12.2144Z" fill="black" style="fill:black;fill-opacity:1;"/>
    </svg>
    