<svg width="24" height="24" viewBox="0 0 24 24" fill="none" xmlns="http://www.w3.org/2000/svg">
    <path d="M12 1C5.91567 1 1 5.91 1 12C1 18.09 5.91 23 12 23C18.09 23 23 18.09 23 12C23 5.91 18.0844 1 12 1ZM12 21.5292C6.72087 21.5292 2.47075 17.2791 2.47075 12C2.47075 6.72082 6.72091 2.4707 12 2.4707C17.2791 2.4707 21.5293 6.72082 21.5293 12C21.5293 17.2791 17.2791 21.5292 12 21.5292Z" fill="#231F20"/>
    <path d="M17.2791 8.77358C16.9883 8.48271 16.5465 8.48271 16.2501 8.77353L10.6075 14.4162L7.74986 11.5585C7.45908 11.2678 7.01726 11.2678 6.72089 11.5585C6.43011 11.8493 6.43011 12.2911 6.72089 12.5875L10.093 15.9596C10.2384 16.105 10.3838 16.1777 10.6075 16.1777C10.8256 16.1777 10.9766 16.105 11.122 15.9596L17.2791 9.80254C17.5699 9.51176 17.5699 9.07003 17.2791 8.77358Z" fill="#231F20"/>
    </svg>
    