<svg width="24" height="24" viewBox="0 0 24 24" fill="none" xmlns="http://www.w3.org/2000/svg">
    <path d="M20.9899 6.888C20.9865 6.84975 20.9786 6.81375 20.9674 6.77663C20.9566 6.74041 20.9423 6.70536 20.9246 6.672C20.9167 6.65737 20.9156 6.63937 20.9055 6.62475L18.6555 3.24975C18.5509 3.0945 18.3754 3 18.1875 3H5.8125C5.62462 3 5.44913 3.0945 5.3445 3.25087L3.0945 6.62587C3.08438 6.6405 3.08325 6.65738 3.07538 6.67313C3.05738 6.70688 3.04387 6.74063 3.03262 6.77775C3.02137 6.81488 3.0135 6.85087 3.01013 6.88913C3.00787 6.90488 3 6.9195 3 6.9375V19.875C3 20.496 3.50512 21 4.125 21H19.875C20.4949 21 21 20.496 21 19.875V6.9375C21 6.9195 20.9921 6.90488 20.9899 6.888ZM17.886 4.125L19.3867 6.375H14.1645L13.7887 4.125H17.886ZM11.3509 4.125H12.648L13.0238 6.375H10.9763L11.3509 4.125ZM10.875 7.5H13.125V9.53288L12.1777 9.21563C12.0622 9.1785 11.9378 9.1785 11.8223 9.21563L10.875 9.53288V7.5ZM6.114 4.125H10.2112L9.8355 6.375H4.61325L6.114 4.125ZM19.875 20.4375V19.875H4.125V7.5H9.75V10.3125C9.75 10.4936 9.83663 10.6635 9.984 10.7681C10.1302 10.875 10.3181 10.8997 10.4903 10.8469L12 10.3429L13.5098 10.8457C13.5682 10.8649 13.6279 10.875 13.6875 10.875C13.8045 10.875 13.9192 10.839 14.016 10.7681C14.1634 10.6635 14.25 10.4936 14.25 10.3125V7.5H19.875V19.875H19.8761L19.875 20.4375Z" fill="#231F20"/>
    <path d="M9.1875 15.375H5.8125C5.502 15.375 5.25 15.627 5.25 15.9375C5.25 16.248 5.502 16.5 5.8125 16.5H9.1875C9.498 16.5 9.75 16.248 9.75 15.9375C9.75 15.627 9.498 15.375 9.1875 15.375ZM7.5 17.625H5.8125C5.502 17.625 5.25 17.877 5.25 18.1875C5.25 18.498 5.502 18.75 5.8125 18.75H7.5C7.8105 18.75 8.0625 18.498 8.0625 18.1875C8.0625 17.877 7.8105 17.625 7.5 17.625Z" fill="#231F20"/>
    </svg>
    