<svg width="13" height="12" viewBox="0 0 13 12" fill="none" xmlns="http://www.w3.org/2000/svg">
    <path d="M6.50033 0.166664C6.69371 0.166664 6.87918 0.243487 7.01592 0.380232C7.15267 0.516977 7.22949 0.702444 7.22949 0.895831V5.27083H11.6045C11.7979 5.27083 11.9833 5.34765 12.1201 5.4844C12.2568 5.62114 12.3337 5.80661 12.3337 6C12.3337 6.19338 12.2568 6.37885 12.1201 6.5156C11.9833 6.65234 11.7979 6.72916 11.6045 6.72916H7.22949V11.1042C7.22949 11.2976 7.15267 11.483 7.01592 11.6198C6.87918 11.7565 6.69371 11.8333 6.50033 11.8333C6.30694 11.8333 6.12147 11.7565 5.98473 11.6198C5.84798 11.483 5.77116 11.2976 5.77116 11.1042V6.72916H1.39616C1.20277 6.72916 1.01731 6.65234 0.88056 6.5156C0.743815 6.37885 0.666992 6.19338 0.666992 6C0.666992 5.80661 0.743815 5.62114 0.88056 5.4844C1.01731 5.34765 1.20277 5.27083 1.39616 5.27083H5.77116V0.895831C5.77116 0.702444 5.84798 0.516977 5.98473 0.380232C6.12147 0.243487 6.30694 0.166664 6.50033 0.166664Z" fill="white"/>
    </svg>
    