<svg width="20" height="20" viewBox="0 0 20 20" fill="none" xmlns="http://www.w3.org/2000/svg">
    <path d="M2.08325 9.99992C2.08325 6.26797 2.08325 4.40199 3.24262 3.24262C4.40199 2.08325 6.26797 2.08325 9.99992 2.08325C13.7319 2.08325 15.5978 2.08325 16.7572 3.24262C17.9166 4.40199 17.9166 6.26797 17.9166 9.99992C17.9166 13.7319 17.9166 15.5978 16.7572 16.7572C15.5978 17.9166 13.7319 17.9166 9.99992 17.9166C6.26797 17.9166 4.40199 17.9166 3.24262 16.7572C2.08325 15.5978 2.08325 13.7319 2.08325 9.99992Z" stroke="#231F20" stroke-linejoin="round"/>
    <path d="M9.99984 6.6665L9.99984 13.3332M13.3332 9.99984L6.6665 9.99984" stroke="#231F20" stroke-linecap="round" stroke-linejoin="round"/>
    </svg>
    