<svg width="17" height="17" viewBox="0 0 17 17" fill="none" xmlns="http://www.w3.org/2000/svg">
    <path d="M12.2345 1C12.2234 1 12.2086 1 12.1975 1C10.7304 1 9.43326 1.77607 8.68676 2.92169C7.94026 1.77607 6.64312 1 5.17598 1C5.16489 1 5.15011 1 5.13902 1C2.85147 1.02217 1 2.88104 1 5.17598C1 6.54333 1.59868 8.4835 2.76648 10.08C4.9912 13.1214 8.68676 15.7822 8.68676 15.7822C8.68676 15.7822 12.3823 13.1214 14.607 10.08C15.7748 8.4835 16.3735 6.54333 16.3735 5.17598C16.3735 2.88104 14.522 1.02217 12.2345 1Z" fill="white" stroke="white" style="fill:white;fill-opacity:1;stroke:white;stroke-opacity:1;"/>
    </svg>
    