<svg width="20" height="16" viewBox="0 0 20 16" fill="none" xmlns="http://www.w3.org/2000/svg">
    <path d="M6.4 13.4H13V9.19995H1V12.1999C0.999958 12.3576 1.03099 12.5137 1.09132 12.6593C1.15165 12.8049 1.2401 12.9372 1.3516 13.0486C1.46301 13.16 1.59528 13.2484 1.74085 13.3087C1.88642 13.3689 2.04243 13.4 2.19999 13.3999H2.8" stroke="#231F20" stroke-miterlimit="10" stroke-linecap="round" stroke-linejoin="round"/>
    <path d="M13 9.19979V1.99979C13 1.84221 12.969 1.68618 12.9086 1.5406C12.8483 1.39503 12.7599 1.26278 12.6484 1.1514C12.537 1.03996 12.4047 0.951551 12.2592 0.891224C12.1136 0.830897 11.9576 0.799833 11.8 0.799805H2.19999C2.04241 0.799833 1.88639 0.830897 1.74082 0.891224C1.59526 0.951551 1.463 1.03996 1.3516 1.1514C1.24012 1.26278 1.15169 1.39503 1.09136 1.5406C1.03103 1.68618 0.999987 1.84221 1 1.99979V9.19979H13Z" stroke="#231F20" stroke-miterlimit="10" stroke-linecap="round" stroke-linejoin="round"/>
    <path d="M16.6 13.3996H17.8C17.9575 13.3996 18.1136 13.3686 18.2591 13.3084C18.4047 13.2481 18.537 13.1597 18.6484 13.0483C18.7599 12.9369 18.8483 12.8046 18.9087 12.659C18.969 12.5134 19 12.3573 19 12.1996V7.39965C19 5.74305 17.6569 4.39966 16 4.39966H13V13.3997" stroke="#231F20" stroke-miterlimit="10" stroke-linecap="round" stroke-linejoin="round"/>
    <path d="M4.60005 15.1996C5.59416 15.1996 6.40005 14.3937 6.40005 13.3996C6.40005 12.4055 5.59416 11.5996 4.60005 11.5996C3.60594 11.5996 2.80005 12.4055 2.80005 13.3996C2.80005 14.3937 3.60594 15.1996 4.60005 15.1996Z" stroke="#231F20" stroke-miterlimit="10" stroke-linecap="round" stroke-linejoin="round"/>
    <path d="M14.8 15.1996C15.7941 15.1996 16.6 14.3937 16.6 13.3996C16.6 12.4055 15.7941 11.5996 14.8 11.5996C13.8059 11.5996 13 12.4055 13 13.3996C13 14.3937 13.8059 15.1996 14.8 15.1996Z" stroke="#231F20" stroke-miterlimit="10" stroke-linecap="round" stroke-linejoin="round"/>
    <path d="M16 4.39966V9.19965H19" stroke="#231F20" stroke-miterlimit="10" stroke-linecap="round" stroke-linejoin="round"/>
    </svg>
    