<svg width="14" height="14" viewBox="0 0 14 14" fill="none" xmlns="http://www.w3.org/2000/svg">
    <path fill-rule="evenodd" clip-rule="evenodd" d="M6.99594 11.5478C4.48627 11.5478 2.44409 9.50557 2.44409 6.99591C2.44409 4.48624 4.48627 2.44406 6.99594 2.44406C9.5056 2.44406 11.5478 4.48624 11.5478 6.99591C11.5478 9.50557 9.5056 11.5478 6.99594 11.5478Z" fill="white"/>
    <path fill-rule="evenodd" clip-rule="evenodd" d="M6.9959 1.75513C6.88108 1.75513 6.78266 1.66491 6.78266 1.54189V0.21324C6.78266 0.0984183 6.88108 0 6.9959 0C7.11892 0 7.20914 0.0984183 7.20914 0.21324V1.54189C7.20914 1.66491 7.11892 1.75513 6.9959 1.75513ZM9.72701 2.48506C9.686 2.48506 9.65319 2.47686 9.62039 2.46046C9.51377 2.40305 9.48096 2.27182 9.53837 2.1734L10.2109 1.01699C10.2683 0.910369 10.3995 0.877563 10.4979 0.934974C10.5964 0.992384 10.6374 1.12361 10.5718 1.23023L9.90744 2.37844C9.86643 2.45226 9.80082 2.48506 9.72701 2.48506ZM11.72 4.48623C11.6462 4.48623 11.5723 4.44523 11.5395 4.37961C11.4821 4.27299 11.5149 4.14997 11.6134 4.08436L12.7698 3.42003C12.8682 3.36262 12.9994 3.39543 13.0568 3.50205C13.1142 3.60047 13.0814 3.73169 12.983 3.7891L11.8266 4.45343C11.7938 4.47803 11.761 4.48623 11.72 4.48623ZM13.7868 7.20914H12.4499C12.3351 7.20914 12.2367 7.11892 12.2367 6.9959C12.2367 6.88108 12.3351 6.78266 12.4499 6.78266H13.7868C13.9016 6.78266 14 6.88108 14 6.9959C14 7.11892 13.9016 7.20914 13.7868 7.20914ZM12.8764 10.6046C12.8354 10.6046 12.8026 10.5964 12.7698 10.5718L11.6134 9.90744C11.5149 9.85003 11.4821 9.7188 11.5395 9.62039C11.597 9.51377 11.7282 9.48096 11.8266 9.53837L12.983 10.2109C13.0814 10.2683 13.1142 10.3995 13.0568 10.4979C13.024 10.5636 12.9502 10.6046 12.8764 10.6046ZM10.3913 13.0896C10.3175 13.0896 10.2437 13.0486 10.2109 12.983L9.53837 11.8266C9.48096 11.7282 9.51377 11.597 9.62039 11.5395C9.7188 11.4821 9.85003 11.5149 9.90744 11.6134L10.5718 12.7698C10.6374 12.8682 10.5964 12.9994 10.4979 13.0568C10.4651 13.0814 10.4241 13.0896 10.3913 13.0896ZM6.9959 14C6.88108 14 6.78266 13.9016 6.78266 13.7868V12.4499C6.78266 12.3351 6.88108 12.2367 6.9959 12.2367C7.11892 12.2367 7.20914 12.3351 7.20914 12.4499V13.7868C7.20914 13.9016 7.11892 14 6.9959 14ZM3.60867 13.0896C3.56766 13.0896 3.53486 13.0814 3.50205 13.0568C3.39543 12.9994 3.36262 12.8682 3.42003 12.7698L4.08436 11.6134C4.14997 11.5149 4.27299 11.4739 4.37961 11.5395C4.47803 11.597 4.51084 11.7282 4.45343 11.8266L3.7891 12.983C3.7481 13.0486 3.68248 13.0896 3.60867 13.0896ZM1.12361 10.6046C1.04979 10.6046 0.975981 10.5636 0.934974 10.4979C0.877563 10.3995 0.910369 10.2683 1.01699 10.2109L2.1734 9.53837C2.27182 9.48096 2.40305 9.51377 2.46046 9.62039C2.51787 9.7188 2.48506 9.85003 2.38664 9.90744L1.23023 10.5718C1.19742 10.5964 1.15641 10.6046 1.12361 10.6046ZM1.54189 7.20914H0.21324C0.0984183 7.20914 0 7.11892 0 6.9959C0 6.88108 0.0984183 6.78266 0.21324 6.78266H1.54189C1.66491 6.78266 1.75513 6.88108 1.75513 6.9959C1.75513 7.11892 1.66491 7.20914 1.54189 7.20914ZM2.28002 4.48623C2.23902 4.48623 2.20621 4.47803 2.1734 4.45343L1.01699 3.7891C0.910369 3.73169 0.877563 3.60047 0.934974 3.50205C0.992384 3.39543 1.12361 3.36262 1.23023 3.42003L2.38664 4.08436C2.48506 4.14997 2.51787 4.27299 2.46046 4.37961C2.41945 4.44523 2.34564 4.48623 2.28002 4.48623ZM4.27299 2.48506C4.19918 2.48506 4.12537 2.45226 4.08436 2.38664L3.42003 1.23023C3.36262 1.12361 3.39543 0.992384 3.50205 0.934974C3.60047 0.877563 3.73169 0.910369 3.7891 1.01699L4.45343 2.1734C4.51084 2.27182 4.47803 2.40305 4.37961 2.46046C4.34681 2.47686 4.3058 2.48506 4.27299 2.48506Z" fill="white"/>
    <path fill-rule="evenodd" clip-rule="evenodd" d="M8.53774 9.57938C8.51313 9.57938 8.48853 9.57938 8.46392 9.56298L6.99585 8.99707L5.53598 9.56298C5.47037 9.59578 5.38835 9.57938 5.33094 9.53837C5.27353 9.49737 5.24072 9.43175 5.24893 9.35794L5.33914 7.79145L4.33856 6.57762C4.29755 6.52021 4.28115 6.4464 4.30575 6.37259C4.33035 6.30697 4.37956 6.24956 4.45338 6.23316L5.97066 5.83949L6.82362 4.51084C6.85642 4.45343 6.93024 4.42062 6.99585 4.42062C7.06966 4.42062 7.13528 4.45343 7.17628 4.51084L8.02924 5.83949L9.54652 6.23316C9.61214 6.24956 9.66955 6.30697 9.69415 6.37259C9.71876 6.4464 9.70235 6.52021 9.65314 6.57762L8.66076 7.79145L8.75098 9.35794C8.75098 9.43175 8.71817 9.49737 8.66076 9.53837C8.62795 9.57118 8.57874 9.57938 8.53774 9.57938Z" fill="#F4BD4B"/>
    </svg>
    