<svg width="62" height="47" viewBox="0 0 62 47" fill="none" xmlns="http://www.w3.org/2000/svg">
    <path d="M61.9997 11.4001C61.9997 17.6731 56.933 22.8001 50.5997 22.8001C44.3266 22.8001 39.1996 17.6731 39.1996 11.4001C39.1996 5.12702 44.2663 0 50.5394 0C56.933 0 61.9997 5.12702 61.9997 11.4001Z" fill="#F4B940"/>
    <path d="M50.5997 0C56.8727 0 61.9997 5.127 61.9997 11.4001C61.9997 17.6731 56.933 22.8001 50.5997 22.8001C44.3266 22.8001 39.1996 17.6731 39.1996 11.4001" fill="#EA9C3F"/>
    <path d="M50.5999 0C56.8729 0 61.9999 5.127 61.9999 11.4001C61.9999 17.6731 56.9332 22.8001 50.5999 22.8001" fill="#EF8B34"/>
    <path d="M35.2782 0C29.0655 0.0603119 23.9988 5.127 23.9988 11.4001C23.9988 17.6731 29.0655 22.8001 35.3988 22.8001C38.3544 22.8001 41.0084 21.6541 43.0592 19.8445C43.4814 19.4826 43.8433 19.0604 44.2052 18.6382H41.8528C41.5512 18.2763 41.2497 17.854 41.0084 17.4921H45.0497C45.2909 17.1302 45.5322 16.708 45.7132 16.2858H40.3449C40.1639 15.9239 39.983 15.5017 39.8623 15.0794H46.1354C46.4973 13.9334 46.7386 12.727 46.7386 11.4604C46.7386 10.6159 46.6179 9.83179 46.4973 9.04766H39.5004C39.5608 8.62543 39.6814 8.26352 39.802 7.8413H46.0751C45.9544 7.41907 45.7735 6.99685 45.5925 6.63495H40.2846C40.4655 6.21272 40.7068 5.85081 40.9481 5.42859H44.9894C44.7481 5.00637 44.4465 4.58414 44.0846 4.22223H41.8528C42.2147 3.80001 42.5766 3.43811 42.9989 3.0762C41.0084 1.20635 38.2941 0.12063 35.3385 0.12063C35.3385 0 35.3385 0 35.2782 0Z" fill="#EC5E57"/>
    <path d="M23.9988 11.4001C23.9988 17.6731 29.0655 22.8001 35.3988 22.8001C38.3544 22.8001 41.0084 21.6541 43.0592 19.8446C43.4814 19.4827 43.8433 19.0604 44.2052 18.6382H41.8528C41.5512 18.2763 41.2497 17.8541 41.0084 17.4922H45.0497C45.2909 17.1303 45.5322 16.708 45.7132 16.2858H40.3449C40.1639 15.9239 39.983 15.5017 39.8623 15.0795H46.1354C46.4973 13.9334 46.7386 12.7271 46.7386 11.4604C46.7386 10.6159 46.6179 9.83181 46.4973 9.04768H39.5004C39.5608 8.62547 39.6814 8.26356 39.802 7.84134H46.0751C45.9544 7.4191 45.7735 6.99689 45.5925 6.63498H40.2846C40.4655 6.21275 40.7068 5.85086 40.9481 5.42862H44.9894C44.7481 5.00641 44.4465 4.58418 44.0846 4.22227H41.8528C42.2147 3.80005 42.5766 3.43813 42.9989 3.07623C41.0084 1.20639 38.2941 0.120667 35.3385 0.120667H35.2782" fill="#D33D3E"/>
    <path d="M35.3992 22.8001C38.3548 22.8001 41.0087 21.6541 43.0595 19.8446C43.4818 19.4827 43.8437 19.0604 44.2056 18.6382H41.8532C41.5516 18.2763 41.25 17.8541 41.0087 17.4922H45.05C45.2913 17.1303 45.5326 16.708 45.7135 16.2858H40.3452C40.1643 15.9239 39.9833 15.5017 39.8627 15.0795H46.1357C46.4976 13.9334 46.7389 12.7271 46.7389 11.4604C46.7389 10.6159 46.6183 9.83181 46.4976 9.04768H39.5008C39.5611 8.62547 39.6817 8.26356 39.8024 7.84134H46.0754C45.9548 7.4191 45.7738 6.99689 45.5929 6.63498H40.2849C40.4659 6.21275 40.7072 5.85086 40.9484 5.42862H44.9897C44.7485 5.00641 44.4468 4.58418 44.085 4.22227H41.8532C42.2151 3.80005 42.577 3.43813 42.9992 3.07623C41.0087 1.20639 38.2944 0.120667 35.3389 0.120667H35.2786" fill="#BA342F"/>
    <path d="M39.4402 14.2956L39.6212 13.2702C39.5609 13.2702 39.4402 13.3305 39.3196 13.3305C38.8974 13.3305 38.8371 13.0893 38.8974 12.9686L39.2593 10.8575H39.9228L40.1037 9.71147H39.5006L39.6212 8.98767H38.4148C38.4148 8.98767 37.691 12.9686 37.691 13.4512C37.691 14.175 38.1133 14.4766 38.6561 14.4766C39.018 14.4766 39.3196 14.3559 39.4402 14.2956Z" fill="white"/>
    <path d="M39.8629 12.3655C39.8629 14.0544 41.0089 14.4766 41.974 14.4766C42.8788 14.4766 43.2407 14.2956 43.2407 14.2956L43.482 13.1496C43.482 13.1496 42.8185 13.4512 42.2153 13.4512C40.8883 13.4512 41.1296 12.4861 41.1296 12.4861H43.6026C43.6026 12.4861 43.7835 11.702 43.7835 11.4004C43.7835 10.6163 43.3613 9.65119 42.0343 9.65119C40.7677 9.53054 39.8629 10.8575 39.8629 12.3655ZM41.974 10.6163C42.6375 10.6163 42.5169 11.4004 42.5169 11.4607H41.1899C41.1899 11.4004 41.3105 10.6163 41.974 10.6163Z" fill="white"/>
    <path d="M49.6345 14.2957L49.8758 12.9687C49.8758 12.9687 49.2726 13.2702 48.8504 13.2702C48.0059 13.2702 47.644 12.6068 47.644 11.8829C47.644 10.4353 48.3678 9.65118 49.2123 9.65118C49.8154 9.65118 50.298 10.0131 50.298 10.0131L50.4789 8.74643C50.4789 8.74643 49.7551 8.44482 49.0916 8.44482C47.7043 8.44482 46.317 9.65118 46.317 11.9433C46.317 13.4512 47.0408 14.4766 48.4885 14.4766C48.971 14.4766 49.6345 14.2957 49.6345 14.2957Z" fill="white"/>
    <path d="M32.8053 9.53058C31.9608 9.53058 31.3576 9.77183 31.3576 9.77183L31.1767 10.7972C31.1767 10.7972 31.7195 10.556 32.5037 10.556C32.9259 10.556 33.2878 10.6163 33.2878 10.9782C33.2878 11.2195 33.2275 11.2798 33.2275 11.2798C33.2275 11.2798 32.8656 11.2798 32.6846 11.2798C31.6592 11.2798 30.5132 11.702 30.5132 13.0893C30.5132 14.175 31.237 14.4163 31.6592 14.4163C32.5037 14.4163 32.8656 13.8734 32.9259 13.8734L32.8656 14.356H33.9513L34.4338 11.0385C34.4338 9.59088 33.2275 9.53058 32.8053 9.53058ZM33.0465 12.2449C33.0465 12.4258 32.9259 13.3909 32.2021 13.3909C31.8402 13.3909 31.7195 13.0893 31.7195 12.9084C31.7195 12.6068 31.9005 12.1846 32.8053 12.1846C32.9862 12.2449 33.0465 12.2449 33.0465 12.2449Z" fill="white"/>
    <path d="M35.5802 14.4163C35.8818 14.4163 37.3897 14.4766 37.3897 12.8481C37.3897 11.3401 35.9421 11.6417 35.9421 11.0385C35.9421 10.7369 36.1834 10.6163 36.6056 10.6163C36.7865 10.6163 37.45 10.6766 37.45 10.6766L37.631 9.59091C37.631 9.59091 37.2088 9.47028 36.485 9.47028C35.5802 9.47028 34.6754 9.83218 34.6754 11.0385C34.6754 12.4258 36.1834 12.3052 36.1834 12.8481C36.1834 13.21 35.7611 13.2703 35.4596 13.2703C34.9167 13.2703 34.3738 13.0893 34.3738 13.0893L34.1929 14.175C34.2532 14.2957 34.5548 14.4163 35.5802 14.4163Z" fill="white"/>
    <path d="M59.6475 8.56543L59.4063 10.194C59.4063 10.194 58.9238 9.59083 58.2602 9.59083C57.1745 9.59083 56.2095 10.9178 56.2095 12.4861C56.2095 13.4512 56.692 14.4765 57.7174 14.4765C58.4412 14.4765 58.8634 13.994 58.8634 13.994L58.8031 14.4163H60.0095L60.9143 8.62574L59.6475 8.56543ZM59.1047 11.7622C59.1047 12.4258 58.8031 13.2702 58.1396 13.2702C57.7174 13.2702 57.4761 12.9083 57.4761 12.3051C57.4761 11.34 57.8984 10.7369 58.4412 10.7369C58.8634 10.7369 59.1047 11.0384 59.1047 11.7622Z" fill="white"/>
    <path d="M26.2308 14.3559L26.9546 10.0131L27.0752 14.3559H27.9196L29.4879 10.0131L28.8244 14.3559H30.0911L31.0562 8.56543H29.0657L27.8593 12.1242L27.799 8.56543H26.0498L25.0847 14.3559H26.2308Z" fill="white"/>
    <path d="M44.9295 14.356C45.2915 12.3655 45.3518 10.737 46.1962 11.0385C46.3169 10.2544 46.4978 9.95283 46.6184 9.65125C46.6184 9.65125 46.5581 9.65125 46.3772 9.65125C45.8343 9.65125 45.4121 10.375 45.4121 10.375L45.5327 9.71156H44.3867L43.6025 14.4163H44.9295V14.356Z" fill="white"/>
    <path d="M52.4095 9.53058C51.565 9.53058 50.9619 9.77183 50.9619 9.77183L50.7809 10.7972C50.7809 10.7972 51.3237 10.556 52.1079 10.556C52.5301 10.556 52.892 10.6163 52.892 10.9782C52.892 11.2195 52.8317 11.2798 52.8317 11.2798C52.8317 11.2798 52.4698 11.2798 52.2889 11.2798C51.2635 11.2798 50.1174 11.702 50.1174 13.0893C50.1174 14.175 50.8412 14.4163 51.2635 14.4163C52.1079 14.4163 52.4698 13.8734 52.5301 13.8734L52.4698 14.356H53.5555L54.0381 11.0385C54.0984 9.59088 52.8317 9.53058 52.4095 9.53058ZM52.7111 12.2449C52.7111 12.4258 52.5905 13.3909 51.8666 13.3909C51.5047 13.3909 51.3841 13.0893 51.3841 12.9084C51.3841 12.6068 51.565 12.1846 52.4698 12.1846C52.6507 12.2449 52.6507 12.2449 52.7111 12.2449Z" fill="white"/>
    <path d="M55.0633 14.356C55.4252 12.3655 55.4855 10.737 56.33 11.0385C56.4506 10.2544 56.6316 9.95283 56.7522 9.65125C56.7522 9.65125 56.6919 9.65125 56.5109 9.65125C55.9681 9.65125 55.5459 10.375 55.5459 10.375L55.6665 9.71156H54.5205L53.7363 14.4163H55.0633V14.356Z" fill="white"/>
    <path d="M37.5704 13.4512C37.5704 14.175 37.9927 14.4766 38.5355 14.4766C38.9578 14.4766 39.3196 14.3559 39.4403 14.2956L39.6212 13.2702C39.5609 13.2702 39.4403 13.3305 39.3196 13.3305C38.8974 13.3305 38.8371 13.0893 38.8974 12.9686L39.2593 10.8575H39.9228L40.1038 9.71149H39.5006L39.6212 8.98767" fill="#DEE5E5"/>
    <path d="M40.4659 12.3655C40.4659 14.0544 41.0088 14.4766 41.9739 14.4766C42.8786 14.4766 43.2406 14.2956 43.2406 14.2956L43.4818 13.1496C43.4818 13.1496 42.8183 13.4512 42.2152 13.4512C40.8882 13.4512 41.1294 12.4861 41.1294 12.4861H43.6024C43.6024 12.4861 43.7834 11.702 43.7834 11.4004C43.7834 10.6163 43.3612 9.65119 42.0342 9.65119C40.7675 9.53054 40.4659 10.8575 40.4659 12.3655ZM41.9739 10.6163C42.6374 10.6163 42.758 11.4004 42.758 11.4607H41.1897C41.1897 11.4004 41.3104 10.6163 41.9739 10.6163Z" fill="#DEE5E5"/>
    <path d="M49.6348 14.2957L49.8761 12.9687C49.8761 12.9687 49.273 13.2702 48.8507 13.2702C48.0062 13.2702 47.6443 12.6068 47.6443 11.8829C47.6443 10.4353 48.3682 9.65118 49.2126 9.65118C49.8158 9.65118 50.2983 10.0131 50.2983 10.0131L50.4793 8.74643C50.4793 8.74643 49.7555 8.44482 49.092 8.44482C47.7047 8.44482 46.9205 9.65118 46.9205 11.9433C46.9205 13.4512 47.0412 14.4766 48.4888 14.4766C48.9714 14.4766 49.6348 14.2957 49.6348 14.2957Z" fill="#DEE5E5"/>
    <path d="M31.1767 10.8576C31.1767 10.8576 31.7195 10.6163 32.5037 10.6163C32.9259 10.6163 33.2878 10.6767 33.2878 11.0386C33.2878 11.2798 33.2275 11.3401 33.2275 11.3401C33.2275 11.3401 32.8656 11.3401 32.6846 11.3401C31.6592 11.3401 30.5132 11.7624 30.5132 13.1497C30.5132 14.2354 31.237 14.4767 31.6592 14.4767C32.5037 14.4767 32.8656 13.9338 32.9259 13.9338L32.8656 14.4163H33.9513L34.4338 11.0989C34.4338 9.71157 33.2275 9.65125 32.7449 9.65125M33.6497 12.2449C33.6497 12.4259 32.9259 13.3909 32.2021 13.3909C31.8402 13.3909 31.7195 13.0894 31.7195 12.9084C31.7195 12.6068 31.9005 12.1846 32.8053 12.1846C32.9862 12.2449 33.6497 12.2449 33.6497 12.2449Z" fill="#DEE5E5"/>
    <path d="M34.2529 14.2957C34.2529 14.2957 34.6148 14.4163 35.6402 14.4163C35.9418 14.4163 37.4498 14.4766 37.4498 12.8481C37.4498 11.3401 36.0022 11.6417 36.0022 11.0385C36.0022 10.7369 36.2434 10.6163 36.6656 10.6163C36.8466 10.6163 37.5101 10.6766 37.5101 10.6766L37.6911 9.59091C37.6911 9.59091 37.2688 9.47028 36.545 9.47028C35.6402 9.47028 35.3387 9.83218 35.3387 11.0385C35.3387 12.4258 36.2434 12.3052 36.2434 12.8481C36.2434 13.21 35.8212 13.2703 35.5196 13.2703" fill="#DEE5E5"/>
    <path d="M59.4066 10.1941C59.4066 10.1941 58.9241 9.59088 58.2606 9.59088C57.1749 9.59088 56.813 10.9179 56.813 12.4861C56.813 13.4512 56.6924 14.4766 57.7177 14.4766C58.4415 14.4766 58.8638 13.9941 58.8638 13.9941L58.8035 14.4163H60.0098L60.9146 8.62579M59.3463 11.7623C59.3463 12.4258 58.8035 13.2703 58.14 13.2703C57.7177 13.2703 57.4765 12.9083 57.4765 12.3052C57.4765 11.3401 57.8987 10.7369 58.4415 10.7369C58.8638 10.7369 59.3463 11.0385 59.3463 11.7623Z" fill="#DEE5E5"/>
    <path d="M26.2308 14.3559L26.9546 10.0131L27.0752 14.3559H27.9197L29.4879 10.0131L28.8244 14.3559H30.0911L31.0562 8.56543H29.5482L27.8593 12.1242L27.799 8.56543H27.1355L25.0847 14.3559H26.2308Z" fill="#DEE5E5"/>
    <path d="M43.6631 14.356H44.9298C45.2917 12.3655 45.352 10.737 46.1964 11.0385C46.3171 10.2544 46.498 9.95283 46.6187 9.65125C46.6187 9.65125 46.5583 9.65125 46.3774 9.65125C45.8345 9.65125 45.4123 10.375 45.4123 10.375L45.533 9.71156" fill="#DEE5E5"/>
    <path d="M50.7809 10.8576C50.7809 10.8576 51.3238 10.6163 52.1079 10.6163C52.5301 10.6163 52.8921 10.6767 52.8921 11.0386C52.8921 11.2798 52.8317 11.3401 52.8317 11.3401C52.8317 11.3401 52.4698 11.3401 52.2889 11.3401C51.2635 11.3401 50.1174 11.7624 50.1174 13.1497C50.1174 14.2354 50.8413 14.4767 51.2635 14.4767C52.1079 14.4767 52.4698 13.9338 52.5301 13.9338L52.4698 14.4163H53.5555L54.0381 11.0989C54.0381 9.71157 52.8317 9.65125 52.3492 9.65125M53.254 12.2449C53.254 12.4259 52.5301 13.3909 51.8064 13.3909C51.4444 13.3909 51.3238 13.0894 51.3238 12.9084C51.3238 12.6068 51.5047 12.1846 52.4095 12.1846C52.6507 12.2449 53.254 12.2449 53.254 12.2449Z" fill="#DEE5E5"/>
    <path d="M53.7968 14.356H55.0634C55.4253 12.3655 55.4857 10.737 56.3301 11.0385C56.4508 10.2544 56.6317 9.95283 56.7523 9.65125C56.7523 9.65125 56.692 9.65125 56.5111 9.65125C55.9682 9.65125 55.546 10.375 55.546 10.375L55.6666 9.71156" fill="#DEE5E5"/>
    <path d="M2.72 39.7901H1.69V36.7101L0.48 37.2401C0.386667 37.1934 0.306667 37.1301 0.24 37.0501C0.173333 36.9701 0.14 36.8668 0.14 36.7401C0.14 36.4934 0.29 36.3134 0.59 36.2001L1.92 35.6501H2.16C2.32667 35.6501 2.46 35.7001 2.56 35.8001C2.66667 35.9001 2.72 36.0368 2.72 36.2101V39.7901ZM1.69 39.1601H2.72V41.8001C2.67333 41.8201 2.60667 41.8368 2.52 41.8501C2.43333 41.8701 2.34 41.8801 2.24 41.8801C2.05333 41.8801 1.91333 41.8434 1.82 41.7701C1.73333 41.6968 1.69 41.5734 1.69 41.4001V39.1601ZM4.33977 36.4101C4.33977 36.2634 4.41643 36.1268 4.56977 36.0001C4.7231 35.8734 4.92977 35.7734 5.18977 35.7001C5.44977 35.6268 5.7431 35.5901 6.06977 35.5901C6.51643 35.5901 6.89977 35.6668 7.21977 35.8201C7.53977 35.9668 7.7831 36.1734 7.94977 36.4401C8.1231 36.7001 8.20977 37.0068 8.20977 37.3601C8.20977 37.7268 8.10643 38.0834 7.89977 38.4301C7.69977 38.7768 7.36643 39.1601 6.89977 39.5801L5.34977 40.9701H8.17977C8.20643 41.0101 8.22977 41.0668 8.24977 41.1401C8.27643 41.2068 8.28977 41.2868 8.28977 41.3801C8.28977 41.5201 8.25643 41.6268 8.18977 41.7001C8.1231 41.7668 8.0331 41.8001 7.91977 41.8001H4.39977C4.3131 41.7401 4.24643 41.6634 4.19977 41.5701C4.1531 41.4768 4.12977 41.3734 4.12977 41.2601C4.12977 41.1268 4.15643 41.0101 4.20977 40.9101C4.26977 40.8034 4.3431 40.7134 4.42977 40.6401L6.11977 39.0401C6.51977 38.6801 6.7931 38.3801 6.93977 38.1401C7.08643 37.8934 7.15977 37.6434 7.15977 37.3901C7.15977 37.1101 7.05977 36.8834 6.85977 36.7101C6.65977 36.5301 6.36643 36.4401 5.97977 36.4401C5.6931 36.4401 5.43643 36.4901 5.20977 36.5901C4.9831 36.6834 4.79643 36.7834 4.64977 36.8901C4.5631 36.8434 4.48977 36.7801 4.42977 36.7001C4.36977 36.6201 4.33977 36.5234 4.33977 36.4101ZM11.087 35.5801C11.7536 35.5801 12.2836 35.7234 12.677 36.0101C13.0703 36.2968 13.267 36.7168 13.267 37.2701C13.267 37.5234 13.2136 37.7434 13.107 37.9301C13.007 38.1101 12.8836 38.2568 12.737 38.3701C12.597 38.4834 12.4603 38.5601 12.327 38.6001C12.5136 38.6601 12.6903 38.7534 12.857 38.8801C13.0236 39.0068 13.1603 39.1701 13.267 39.3701C13.3803 39.5701 13.437 39.8134 13.437 40.1001C13.437 40.5001 13.337 40.8334 13.137 41.1001C12.9436 41.3668 12.6703 41.5701 12.317 41.7101C11.9703 41.8501 11.5703 41.9201 11.117 41.9201C10.7236 41.9201 10.3803 41.8801 10.087 41.8001C9.80029 41.7201 9.57695 41.6168 9.41695 41.4901C9.25695 41.3634 9.17695 41.2234 9.17695 41.0701C9.17695 40.9568 9.20695 40.8601 9.26695 40.7801C9.32695 40.6934 9.40362 40.6234 9.49695 40.5701C9.65695 40.6901 9.85695 40.8034 10.097 40.9101C10.3436 41.0168 10.6636 41.0701 11.057 41.0701C11.4703 41.0701 11.8003 40.9834 12.047 40.8101C12.2936 40.6368 12.417 40.3834 12.417 40.0501C12.417 39.7434 12.3036 39.5001 12.077 39.3201C11.857 39.1401 11.527 39.0501 11.087 39.0501H10.227C10.2003 39.0101 10.1736 38.9534 10.147 38.8801C10.127 38.8068 10.117 38.7268 10.117 38.6401C10.117 38.5468 10.127 38.4634 10.147 38.3901C10.1736 38.3168 10.2003 38.2568 10.227 38.2101H11.037C11.4703 38.2101 11.7803 38.1301 11.967 37.9701C12.1536 37.8101 12.247 37.5968 12.247 37.3301C12.247 37.0368 12.137 36.8134 11.917 36.6601C11.697 36.5068 11.3936 36.4301 11.007 36.4301C10.7003 36.4301 10.4303 36.4768 10.197 36.5701C9.96362 36.6568 9.77029 36.7534 9.61695 36.8601C9.53695 36.8134 9.46695 36.7501 9.40695 36.6701C9.34695 36.5834 9.31695 36.4868 9.31695 36.3801C9.31695 36.2334 9.39362 36.1001 9.54695 35.9801C9.70695 35.8601 9.92029 35.7634 10.187 35.6901C10.4536 35.6168 10.7536 35.5801 11.087 35.5801ZM15.4448 36.4201L15.6948 37.1301L14.2048 36.6501C14.1782 36.5701 14.1648 36.4868 14.1648 36.4001C14.1648 36.2934 14.1982 36.2068 14.2648 36.1401C14.3315 36.0668 14.4182 36.0301 14.5248 36.0301C14.5648 36.0301 14.6048 36.0368 14.6448 36.0501C14.6848 36.0634 14.7248 36.0768 14.7648 36.0901L15.4448 36.4201ZM15.9248 36.7301L15.0648 37.9901C15.0382 37.9968 15.0115 38.0034 14.9848 38.0101C14.9582 38.0101 14.9348 38.0101 14.9148 38.0101C14.7615 38.0101 14.6448 37.9768 14.5648 37.9101C14.4915 37.8434 14.4548 37.7634 14.4548 37.6701C14.4548 37.6101 14.4682 37.5534 14.4948 37.5001C14.5282 37.4401 14.5648 37.3868 14.6048 37.3401L15.0748 36.8001L15.9248 36.7301ZM15.3448 36.9701L15.7048 36.4301L16.6648 37.6501C16.6448 37.7501 16.5948 37.8368 16.5148 37.9101C16.4348 37.9768 16.3482 38.0101 16.2548 38.0101C16.1548 38.0101 16.0715 37.9768 16.0048 37.9101C15.9448 37.8434 15.8882 37.7734 15.8348 37.7001L15.3448 36.9701ZM15.2448 36.6401L16.5848 35.9401C16.6582 35.9668 16.7248 36.0168 16.7848 36.0901C16.8448 36.1634 16.8748 36.2501 16.8748 36.3501C16.8748 36.4501 16.8448 36.5234 16.7848 36.5701C16.7315 36.6101 16.6582 36.6501 16.5648 36.6901L15.7848 37.0501L15.2448 36.6401ZM15.8448 36.6201L15.2148 36.9501L15.1848 35.4201C15.2182 35.4001 15.2648 35.3768 15.3248 35.3501C15.3915 35.3234 15.4648 35.3101 15.5448 35.3101C15.6515 35.3101 15.7382 35.3368 15.8048 35.3901C15.8715 35.4368 15.9048 35.5134 15.9048 35.6201C15.9048 35.6601 15.8982 35.7501 15.8848 35.8901C15.8782 36.0234 15.8682 36.1634 15.8548 36.3101C15.8482 36.4501 15.8448 36.5534 15.8448 36.6201ZM18.5601 36.4201L18.8101 37.1301L17.3201 36.6501C17.2934 36.5701 17.2801 36.4868 17.2801 36.4001C17.2801 36.2934 17.3134 36.2068 17.3801 36.1401C17.4467 36.0668 17.5334 36.0301 17.6401 36.0301C17.6801 36.0301 17.7201 36.0368 17.7601 36.0501C17.8001 36.0634 17.8401 36.0768 17.8801 36.0901L18.5601 36.4201ZM19.0401 36.7301L18.1801 37.9901C18.1534 37.9968 18.1267 38.0034 18.1001 38.0101C18.0734 38.0101 18.0501 38.0101 18.0301 38.0101C17.8767 38.0101 17.7601 37.9768 17.6801 37.9101C17.6067 37.8434 17.5701 37.7634 17.5701 37.6701C17.5701 37.6101 17.5834 37.5534 17.6101 37.5001C17.6434 37.4401 17.6801 37.3868 17.7201 37.3401L18.1901 36.8001L19.0401 36.7301ZM18.4601 36.9701L18.8201 36.4301L19.7801 37.6501C19.7601 37.7501 19.7101 37.8368 19.6301 37.9101C19.5501 37.9768 19.4634 38.0101 19.3701 38.0101C19.2701 38.0101 19.1867 37.9768 19.1201 37.9101C19.0601 37.8434 19.0034 37.7734 18.9501 37.7001L18.4601 36.9701ZM18.3601 36.6401L19.7001 35.9401C19.7734 35.9668 19.8401 36.0168 19.9001 36.0901C19.9601 36.1634 19.9901 36.2501 19.9901 36.3501C19.9901 36.4501 19.9601 36.5234 19.9001 36.5701C19.8467 36.6101 19.7734 36.6501 19.6801 36.6901L18.9001 37.0501L18.3601 36.6401ZM18.9601 36.6201L18.3301 36.9501L18.3001 35.4201C18.3334 35.4001 18.3801 35.3768 18.4401 35.3501C18.5067 35.3234 18.5801 35.3101 18.6601 35.3101C18.7667 35.3101 18.8534 35.3368 18.9201 35.3901C18.9867 35.4368 19.0201 35.5134 19.0201 35.6201C19.0201 35.6601 19.0134 35.7501 19.0001 35.8901C18.9934 36.0234 18.9834 36.1634 18.9701 36.3101C18.9634 36.4501 18.9601 36.5534 18.9601 36.6201ZM21.6753 36.4201L21.9253 37.1301L20.4353 36.6501C20.4086 36.5701 20.3953 36.4868 20.3953 36.4001C20.3953 36.2934 20.4286 36.2068 20.4953 36.1401C20.562 36.0668 20.6486 36.0301 20.7553 36.0301C20.7953 36.0301 20.8353 36.0368 20.8753 36.0501C20.9153 36.0634 20.9553 36.0768 20.9953 36.0901L21.6753 36.4201ZM22.1553 36.7301L21.2953 37.9901C21.2686 37.9968 21.242 38.0034 21.2153 38.0101C21.1886 38.0101 21.1653 38.0101 21.1453 38.0101C20.992 38.0101 20.8753 37.9768 20.7953 37.9101C20.722 37.8434 20.6853 37.7634 20.6853 37.6701C20.6853 37.6101 20.6986 37.5534 20.7253 37.5001C20.7586 37.4401 20.7953 37.3868 20.8353 37.3401L21.3053 36.8001L22.1553 36.7301ZM21.5753 36.9701L21.9353 36.4301L22.8953 37.6501C22.8753 37.7501 22.8253 37.8368 22.7453 37.9101C22.6653 37.9768 22.5786 38.0101 22.4853 38.0101C22.3853 38.0101 22.302 37.9768 22.2353 37.9101C22.1753 37.8434 22.1186 37.7734 22.0653 37.7001L21.5753 36.9701ZM21.4753 36.6401L22.8153 35.9401C22.8886 35.9668 22.9553 36.0168 23.0153 36.0901C23.0753 36.1634 23.1053 36.2501 23.1053 36.3501C23.1053 36.4501 23.0753 36.5234 23.0153 36.5701C22.962 36.6101 22.8886 36.6501 22.7953 36.6901L22.0153 37.0501L21.4753 36.6401ZM22.0753 36.6201L21.4453 36.9501L21.4153 35.4201C21.4486 35.4001 21.4953 35.3768 21.5553 35.3501C21.622 35.3234 21.6953 35.3101 21.7753 35.3101C21.882 35.3101 21.9686 35.3368 22.0353 35.3901C22.102 35.4368 22.1353 35.5134 22.1353 35.6201C22.1353 35.6601 22.1286 35.7501 22.1153 35.8901C22.1086 36.0234 22.0986 36.1634 22.0853 36.3101C22.0786 36.4501 22.0753 36.5534 22.0753 36.6201ZM26.7925 36.4201L27.0425 37.1301L25.5525 36.6501C25.5258 36.5701 25.5125 36.4868 25.5125 36.4001C25.5125 36.2934 25.5458 36.2068 25.6125 36.1401C25.6792 36.0668 25.7658 36.0301 25.8725 36.0301C25.9125 36.0301 25.9525 36.0368 25.9925 36.0501C26.0325 36.0634 26.0725 36.0768 26.1125 36.0901L26.7925 36.4201ZM27.2725 36.7301L26.4125 37.9901C26.3858 37.9968 26.3592 38.0034 26.3325 38.0101C26.3058 38.0101 26.2825 38.0101 26.2625 38.0101C26.1092 38.0101 25.9925 37.9768 25.9125 37.9101C25.8392 37.8434 25.8025 37.7634 25.8025 37.6701C25.8025 37.6101 25.8158 37.5534 25.8425 37.5001C25.8758 37.4401 25.9125 37.3868 25.9525 37.3401L26.4225 36.8001L27.2725 36.7301ZM26.6925 36.9701L27.0525 36.4301L28.0125 37.6501C27.9925 37.7501 27.9425 37.8368 27.8625 37.9101C27.7825 37.9768 27.6958 38.0101 27.6025 38.0101C27.5025 38.0101 27.4192 37.9768 27.3525 37.9101C27.2925 37.8434 27.2358 37.7734 27.1825 37.7001L26.6925 36.9701ZM26.5925 36.6401L27.9325 35.9401C28.0058 35.9668 28.0725 36.0168 28.1325 36.0901C28.1925 36.1634 28.2225 36.2501 28.2225 36.3501C28.2225 36.4501 28.1925 36.5234 28.1325 36.5701C28.0792 36.6101 28.0058 36.6501 27.9125 36.6901L27.1325 37.0501L26.5925 36.6401ZM27.1925 36.6201L26.5625 36.9501L26.5325 35.4201C26.5658 35.4001 26.6125 35.3768 26.6725 35.3501C26.7392 35.3234 26.8125 35.3101 26.8925 35.3101C26.9992 35.3101 27.0858 35.3368 27.1525 35.3901C27.2192 35.4368 27.2525 35.5134 27.2525 35.6201C27.2525 35.6601 27.2458 35.7501 27.2325 35.8901C27.2258 36.0234 27.2158 36.1634 27.2025 36.3101C27.1958 36.4501 27.1925 36.5534 27.1925 36.6201ZM29.9077 36.4201L30.1577 37.1301L28.6677 36.6501C28.6411 36.5701 28.6277 36.4868 28.6277 36.4001C28.6277 36.2934 28.6611 36.2068 28.7277 36.1401C28.7944 36.0668 28.8811 36.0301 28.9877 36.0301C29.0277 36.0301 29.0677 36.0368 29.1077 36.0501C29.1477 36.0634 29.1877 36.0768 29.2277 36.0901L29.9077 36.4201ZM30.3877 36.7301L29.5277 37.9901C29.5011 37.9968 29.4744 38.0034 29.4477 38.0101C29.4211 38.0101 29.3977 38.0101 29.3777 38.0101C29.2244 38.0101 29.1077 37.9768 29.0277 37.9101C28.9544 37.8434 28.9177 37.7634 28.9177 37.6701C28.9177 37.6101 28.9311 37.5534 28.9577 37.5001C28.9911 37.4401 29.0277 37.3868 29.0677 37.3401L29.5377 36.8001L30.3877 36.7301ZM29.8077 36.9701L30.1677 36.4301L31.1277 37.6501C31.1077 37.7501 31.0577 37.8368 30.9777 37.9101C30.8977 37.9768 30.8111 38.0101 30.7177 38.0101C30.6177 38.0101 30.5344 37.9768 30.4677 37.9101C30.4077 37.8434 30.3511 37.7734 30.2977 37.7001L29.8077 36.9701ZM29.7077 36.6401L31.0477 35.9401C31.1211 35.9668 31.1877 36.0168 31.2477 36.0901C31.3077 36.1634 31.3377 36.2501 31.3377 36.3501C31.3377 36.4501 31.3077 36.5234 31.2477 36.5701C31.1944 36.6101 31.1211 36.6501 31.0277 36.6901L30.2477 37.0501L29.7077 36.6401ZM30.3077 36.6201L29.6777 36.9501L29.6477 35.4201C29.6811 35.4001 29.7277 35.3768 29.7877 35.3501C29.8544 35.3234 29.9277 35.3101 30.0077 35.3101C30.1144 35.3101 30.2011 35.3368 30.2677 35.3901C30.3344 35.4368 30.3677 35.5134 30.3677 35.6201C30.3677 35.6601 30.3611 35.7501 30.3477 35.8901C30.3411 36.0234 30.3311 36.1634 30.3177 36.3101C30.3111 36.4501 30.3077 36.5534 30.3077 36.6201ZM33.023 36.4201L33.273 37.1301L31.783 36.6501C31.7563 36.5701 31.743 36.4868 31.743 36.4001C31.743 36.2934 31.7763 36.2068 31.843 36.1401C31.9096 36.0668 31.9963 36.0301 32.103 36.0301C32.143 36.0301 32.183 36.0368 32.223 36.0501C32.263 36.0634 32.303 36.0768 32.343 36.0901L33.023 36.4201ZM33.503 36.7301L32.643 37.9901C32.6163 37.9968 32.5896 38.0034 32.563 38.0101C32.5363 38.0101 32.513 38.0101 32.493 38.0101C32.3396 38.0101 32.223 37.9768 32.143 37.9101C32.0696 37.8434 32.033 37.7634 32.033 37.6701C32.033 37.6101 32.0463 37.5534 32.073 37.5001C32.1063 37.4401 32.143 37.3868 32.183 37.3401L32.653 36.8001L33.503 36.7301ZM32.923 36.9701L33.283 36.4301L34.243 37.6501C34.223 37.7501 34.173 37.8368 34.093 37.9101C34.013 37.9768 33.9263 38.0101 33.833 38.0101C33.733 38.0101 33.6496 37.9768 33.583 37.9101C33.523 37.8434 33.4663 37.7734 33.413 37.7001L32.923 36.9701ZM32.823 36.6401L34.163 35.9401C34.2363 35.9668 34.303 36.0168 34.363 36.0901C34.423 36.1634 34.453 36.2501 34.453 36.3501C34.453 36.4501 34.423 36.5234 34.363 36.5701C34.3096 36.6101 34.2363 36.6501 34.143 36.6901L33.363 37.0501L32.823 36.6401ZM33.423 36.6201L32.793 36.9501L32.763 35.4201C32.7963 35.4001 32.843 35.3768 32.903 35.3501C32.9696 35.3234 33.043 35.3101 33.123 35.3101C33.2296 35.3101 33.3163 35.3368 33.383 35.3901C33.4496 35.4368 33.483 35.5134 33.483 35.6201C33.483 35.6601 33.4763 35.7501 33.463 35.8901C33.4563 36.0234 33.4463 36.1634 33.433 36.3101C33.4263 36.4501 33.423 36.5534 33.423 36.6201ZM36.1382 36.4201L36.3882 37.1301L34.8982 36.6501C34.8715 36.5701 34.8582 36.4868 34.8582 36.4001C34.8582 36.2934 34.8915 36.2068 34.9582 36.1401C35.0249 36.0668 35.1115 36.0301 35.2182 36.0301C35.2582 36.0301 35.2982 36.0368 35.3382 36.0501C35.3782 36.0634 35.4182 36.0768 35.4582 36.0901L36.1382 36.4201ZM36.6182 36.7301L35.7582 37.9901C35.7315 37.9968 35.7049 38.0034 35.6782 38.0101C35.6515 38.0101 35.6282 38.0101 35.6082 38.0101C35.4549 38.0101 35.3382 37.9768 35.2582 37.9101C35.1849 37.8434 35.1482 37.7634 35.1482 37.6701C35.1482 37.6101 35.1615 37.5534 35.1882 37.5001C35.2215 37.4401 35.2582 37.3868 35.2982 37.3401L35.7682 36.8001L36.6182 36.7301ZM36.0382 36.9701L36.3982 36.4301L37.3582 37.6501C37.3382 37.7501 37.2882 37.8368 37.2082 37.9101C37.1282 37.9768 37.0415 38.0101 36.9482 38.0101C36.8482 38.0101 36.7649 37.9768 36.6982 37.9101C36.6382 37.8434 36.5815 37.7734 36.5282 37.7001L36.0382 36.9701ZM35.9382 36.6401L37.2782 35.9401C37.3515 35.9668 37.4182 36.0168 37.4782 36.0901C37.5382 36.1634 37.5682 36.2501 37.5682 36.3501C37.5682 36.4501 37.5382 36.5234 37.4782 36.5701C37.4249 36.6101 37.3515 36.6501 37.2582 36.6901L36.4782 37.0501L35.9382 36.6401ZM36.5382 36.6201L35.9082 36.9501L35.8782 35.4201C35.9115 35.4001 35.9582 35.3768 36.0182 35.3501C36.0849 35.3234 36.1582 35.3101 36.2382 35.3101C36.3449 35.3101 36.4315 35.3368 36.4982 35.3901C36.5649 35.4368 36.5982 35.5134 36.5982 35.6201C36.5982 35.6601 36.5915 35.7501 36.5782 35.8901C36.5715 36.0234 36.5615 36.1634 36.5482 36.3101C36.5415 36.4501 36.5382 36.5534 36.5382 36.6201ZM41.2554 36.4201L41.5054 37.1301L40.0154 36.6501C39.9887 36.5701 39.9754 36.4868 39.9754 36.4001C39.9754 36.2934 40.0087 36.2068 40.0754 36.1401C40.1421 36.0668 40.2287 36.0301 40.3354 36.0301C40.3754 36.0301 40.4154 36.0368 40.4554 36.0501C40.4954 36.0634 40.5354 36.0768 40.5754 36.0901L41.2554 36.4201ZM41.7354 36.7301L40.8754 37.9901C40.8487 37.9968 40.8221 38.0034 40.7954 38.0101C40.7687 38.0101 40.7454 38.0101 40.7254 38.0101C40.5721 38.0101 40.4554 37.9768 40.3754 37.9101C40.3021 37.8434 40.2654 37.7634 40.2654 37.6701C40.2654 37.6101 40.2787 37.5534 40.3054 37.5001C40.3387 37.4401 40.3754 37.3868 40.4154 37.3401L40.8854 36.8001L41.7354 36.7301ZM41.1554 36.9701L41.5154 36.4301L42.4754 37.6501C42.4554 37.7501 42.4054 37.8368 42.3254 37.9101C42.2454 37.9768 42.1587 38.0101 42.0654 38.0101C41.9654 38.0101 41.8821 37.9768 41.8154 37.9101C41.7554 37.8434 41.6987 37.7734 41.6454 37.7001L41.1554 36.9701ZM41.0554 36.6401L42.3954 35.9401C42.4687 35.9668 42.5354 36.0168 42.5954 36.0901C42.6554 36.1634 42.6854 36.2501 42.6854 36.3501C42.6854 36.4501 42.6554 36.5234 42.5954 36.5701C42.5421 36.6101 42.4687 36.6501 42.3754 36.6901L41.5954 37.0501L41.0554 36.6401ZM41.6554 36.6201L41.0254 36.9501L40.9954 35.4201C41.0287 35.4001 41.0754 35.3768 41.1354 35.3501C41.2021 35.3234 41.2754 35.3101 41.3554 35.3101C41.4621 35.3101 41.5487 35.3368 41.6154 35.3901C41.6821 35.4368 41.7154 35.5134 41.7154 35.6201C41.7154 35.6601 41.7087 35.7501 41.6954 35.8901C41.6887 36.0234 41.6787 36.1634 41.6654 36.3101C41.6587 36.4501 41.6554 36.5534 41.6554 36.6201ZM44.3706 36.4201L44.6206 37.1301L43.1306 36.6501C43.104 36.5701 43.0906 36.4868 43.0906 36.4001C43.0906 36.2934 43.124 36.2068 43.1906 36.1401C43.2573 36.0668 43.344 36.0301 43.4506 36.0301C43.4906 36.0301 43.5306 36.0368 43.5706 36.0501C43.6106 36.0634 43.6506 36.0768 43.6906 36.0901L44.3706 36.4201ZM44.8506 36.7301L43.9906 37.9901C43.964 37.9968 43.9373 38.0034 43.9106 38.0101C43.884 38.0101 43.8606 38.0101 43.8406 38.0101C43.6873 38.0101 43.5706 37.9768 43.4906 37.9101C43.4173 37.8434 43.3806 37.7634 43.3806 37.6701C43.3806 37.6101 43.394 37.5534 43.4206 37.5001C43.454 37.4401 43.4906 37.3868 43.5306 37.3401L44.0006 36.8001L44.8506 36.7301ZM44.2706 36.9701L44.6306 36.4301L45.5906 37.6501C45.5706 37.7501 45.5206 37.8368 45.4406 37.9101C45.3606 37.9768 45.274 38.0101 45.1806 38.0101C45.0806 38.0101 44.9973 37.9768 44.9306 37.9101C44.8706 37.8434 44.814 37.7734 44.7606 37.7001L44.2706 36.9701ZM44.1706 36.6401L45.5106 35.9401C45.584 35.9668 45.6506 36.0168 45.7106 36.0901C45.7706 36.1634 45.8006 36.2501 45.8006 36.3501C45.8006 36.4501 45.7706 36.5234 45.7106 36.5701C45.6573 36.6101 45.584 36.6501 45.4906 36.6901L44.7106 37.0501L44.1706 36.6401ZM44.7706 36.6201L44.1406 36.9501L44.1106 35.4201C44.144 35.4001 44.1906 35.3768 44.2506 35.3501C44.3173 35.3234 44.3906 35.3101 44.4706 35.3101C44.5773 35.3101 44.664 35.3368 44.7306 35.3901C44.7973 35.4368 44.8306 35.5134 44.8306 35.6201C44.8306 35.6601 44.824 35.7501 44.8106 35.8901C44.804 36.0234 44.794 36.1634 44.7806 36.3101C44.774 36.4501 44.7706 36.5534 44.7706 36.6201ZM46.7135 35.7201H50.2835C50.3702 35.7668 50.4402 35.8334 50.4935 35.9201C50.5468 36.0068 50.5735 36.1068 50.5735 36.2201C50.5735 36.2934 50.5635 36.3701 50.5435 36.4501C50.5235 36.5234 50.4935 36.6034 50.4535 36.6901L48.0535 41.8501C48.0002 41.8568 47.9468 41.8601 47.8935 41.8601C47.8468 41.8601 47.8002 41.8601 47.7535 41.8601C47.5868 41.8601 47.4435 41.8234 47.3235 41.7501C47.2102 41.6701 47.1535 41.5534 47.1535 41.4001C47.1535 41.3001 47.1735 41.2034 47.2135 41.1101C47.2535 41.0101 47.3068 40.8934 47.3735 40.7601L49.4335 36.5701H46.4435C46.4235 36.5301 46.4002 36.4734 46.3735 36.4001C46.3468 36.3268 46.3335 36.2468 46.3335 36.1601C46.3335 36.0134 46.3668 35.9034 46.4335 35.8301C46.5068 35.7568 46.6002 35.7201 46.7135 35.7201ZM52.8613 38.4801L53.4813 38.3501C53.9079 38.2634 54.2313 38.1368 54.4513 37.9701C54.6713 37.8034 54.7813 37.5801 54.7813 37.3001C54.7813 37.0201 54.6779 36.8034 54.4713 36.6501C54.2646 36.4901 53.9813 36.4101 53.6213 36.4101C53.2746 36.4101 52.9946 36.4901 52.7813 36.6501C52.5746 36.8101 52.4713 37.0234 52.4713 37.2901C52.4713 37.5168 52.5313 37.7001 52.6513 37.8401C52.7713 37.9801 52.9346 38.0868 53.1413 38.1601C53.3479 38.2268 53.5746 38.2734 53.8213 38.3001L54.4013 38.5101C54.6613 38.5701 54.9079 38.6668 55.1413 38.8001C55.3813 38.9334 55.5746 39.1134 55.7213 39.3401C55.8679 39.5601 55.9413 39.8401 55.9413 40.1801C55.9413 40.5468 55.8446 40.8634 55.6513 41.1301C55.4579 41.3901 55.1879 41.5901 54.8413 41.7301C54.4946 41.8701 54.0879 41.9401 53.6213 41.9401C53.1613 41.9401 52.7546 41.8701 52.4013 41.7301C52.0546 41.5901 51.7846 41.3901 51.5913 41.1301C51.3979 40.8634 51.3013 40.5434 51.3013 40.1701C51.3013 39.8368 51.3779 39.5568 51.5313 39.3301C51.6846 39.0968 51.8813 38.9101 52.1213 38.7701C52.3613 38.6234 52.6079 38.5268 52.8613 38.4801ZM54.4313 38.7301L53.6913 38.9301C53.2646 38.9901 52.9313 39.1268 52.6913 39.3401C52.4513 39.5468 52.3313 39.8134 52.3313 40.1401C52.3313 40.4468 52.4446 40.6868 52.6713 40.8601C52.9046 41.0334 53.2213 41.1201 53.6213 41.1201C54.0079 41.1201 54.3213 41.0368 54.5613 40.8701C54.8013 40.6968 54.9213 40.4501 54.9213 40.1301C54.9213 39.7834 54.7679 39.5068 54.4613 39.3001C54.1613 39.0868 53.7546 38.9634 53.2413 38.9301L52.7513 38.7301C52.3579 38.6234 52.0413 38.4501 51.8013 38.2101C51.5679 37.9634 51.4513 37.6468 51.4513 37.2601C51.4513 36.9134 51.5413 36.6168 51.7213 36.3701C51.9079 36.1168 52.1646 35.9234 52.4913 35.7901C52.8179 35.6568 53.1946 35.5901 53.6213 35.5901C54.2946 35.5901 54.8246 35.7401 55.2113 36.0401C55.6046 36.3401 55.8013 36.7534 55.8013 37.2801C55.8013 37.6868 55.6679 38.0101 55.4013 38.2501C55.1346 38.4834 54.8113 38.6434 54.4313 38.7301ZM57.2451 41.2501C57.2451 41.1568 57.2684 41.0668 57.3151 40.9801C57.3617 40.8868 57.4217 40.8201 57.4951 40.7801C57.6351 40.8534 57.8051 40.9234 58.0051 40.9901C58.2117 41.0501 58.4384 41.0801 58.6851 41.0801C59.0184 41.0801 59.3184 41.0134 59.5851 40.8801C59.8584 40.7468 60.0717 40.5301 60.2251 40.2301C60.3851 39.9301 60.4651 39.5401 60.4651 39.0601C60.3984 39.1268 60.2984 39.2034 60.1651 39.2901C60.0317 39.3768 59.8684 39.4501 59.6751 39.5101C59.4884 39.5701 59.2717 39.6001 59.0251 39.6001C58.6451 39.6001 58.2951 39.5334 57.9751 39.4001C57.6551 39.2668 57.3984 39.0568 57.2051 38.7701C57.0117 38.4768 56.9151 38.1001 56.9151 37.6401C56.9151 37.2334 57.0084 36.8768 57.1951 36.5701C57.3817 36.2568 57.6384 36.0168 57.9651 35.8501C58.2917 35.6768 58.6684 35.5901 59.0951 35.5901C59.5751 35.5901 59.9917 35.7001 60.3451 35.9201C60.7051 36.1334 60.9851 36.4601 61.1851 36.9001C61.3917 37.3401 61.4951 37.9001 61.4951 38.5801C61.4951 39.3734 61.3784 40.0168 61.1451 40.5101C60.9184 41.0034 60.6017 41.3668 60.1951 41.6001C59.7884 41.8268 59.3117 41.9401 58.7651 41.9401C58.3317 41.9401 57.9684 41.8801 57.6751 41.7601C57.3884 41.6401 57.2451 41.4701 57.2451 41.2501ZM59.2051 38.7801C59.4917 38.7801 59.7484 38.7101 59.9751 38.5701C60.2084 38.4301 60.3684 38.2701 60.4551 38.0901V38.1401C60.4551 37.6068 60.3351 37.1901 60.0951 36.8901C59.8617 36.5834 59.5284 36.4301 59.0951 36.4301C58.7617 36.4301 58.4851 36.5368 58.2651 36.7501C58.0517 36.9634 57.9451 37.2534 57.9451 37.6201C57.9451 38.0201 58.0684 38.3134 58.3151 38.5001C58.5617 38.6868 58.8584 38.7801 59.2051 38.7801Z" fill="#757475"/>
    </svg>
    