<svg width="14" height="20" viewBox="0 0 14 20" fill="none" xmlns="http://www.w3.org/2000/svg">
    <path d="M13.3666 17.9635H12.2812V16.0179C12.2812 14.0495 11.2009 12.2402 9.23943 10.923C8.99552 10.7593 8.84392 10.4056 8.84392 9.99988C8.84392 9.59411 8.99552 9.24062 9.23955 9.07671C11.2009 7.75972 12.2812 5.95037 12.2813 3.98196V2.03637H13.3666C13.7164 2.03637 14 1.7528 14 1.40292C14 1.05303 13.7164 0.769531 13.3666 0.769531H0.633142C0.283381 0.769531 -0.000244141 1.05303 -0.000244141 1.40286C-0.000244141 1.75274 0.283381 2.0363 0.633142 2.0363H1.7186V3.98202C1.7186 5.95043 2.79871 7.75978 4.76035 9.07677C5.00425 9.24068 5.15586 9.59417 5.15586 9.99994C5.15586 10.4058 5.00425 10.7593 4.76022 10.9232C2.79871 12.2402 1.7186 14.0496 1.7186 16.018V17.9636H0.633142C0.283381 17.9636 -0.000244141 18.2472 -0.000244141 18.597C-0.000244141 18.9469 0.283381 19.2304 0.633142 19.2304H13.3666C13.7163 19.2304 13.9999 18.947 13.9999 18.597C14 18.2471 13.7164 17.9635 13.3666 17.9635ZM2.98544 16.0179C2.98544 13.9496 4.53975 12.5971 5.4664 11.975C6.06516 11.573 6.42269 10.8347 6.42269 9.99994C6.42269 9.16529 6.06516 8.42692 5.4664 8.025C4.53975 7.40293 2.98544 6.05038 2.98544 3.98209V2.03637H11.0143L11.0142 3.98209C11.0142 6.05038 9.4599 7.40293 8.53338 8.02488C7.93449 8.42698 7.57696 9.16535 7.57696 9.99994C7.57696 10.8347 7.93449 11.573 8.53325 11.975C9.4599 12.5971 11.0142 13.9496 11.0143 16.0179V17.9635H2.98544V16.0179Z" fill="#757C86"/>
    </svg>
    